<svg width="40" height="40" viewBox="0 0 40 40" fill="none" xmlns="http://www.w3.org/2000/svg">
<path fill-rule="evenodd" clip-rule="evenodd" d="M35.5463 20.069L35.5504 19.9546C35.5538 19.8592 35.5555 19.7632 35.5555 19.6667C35.5555 15.3274 32.0732 11.8096 27.7777 11.8096H12.2221C7.92659 11.8096 4.44436 15.3274 4.44436 19.6667C4.44436 19.7632 4.44607 19.8592 4.44945 19.9546L4.4535 20.069L4.44929 20.1835C4.44602 20.2726 4.44436 20.3622 4.44436 20.4525C4.44436 24.3579 7.57837 27.5239 11.4444 27.5239C13.327 27.5239 15.0305 26.7773 16.2912 25.5545C18.3199 23.5871 21.68 23.5871 23.7086 25.5545C24.9694 26.7773 26.6729 27.5239 28.5555 27.5239C32.4215 27.5239 35.5555 24.3579 35.5555 20.4525C35.5555 20.3622 35.5538 20.2726 35.5505 20.1834L35.5463 20.069ZM38.6595 20.0669C38.6642 20.1948 38.6666 20.3234 38.6666 20.4525C38.6666 26.0937 34.1397 30.6667 28.5555 30.6667C25.838 30.6667 23.3709 29.5838 21.554 27.8217C20.7293 27.0219 19.2706 27.0219 18.4458 27.8217C16.629 29.5838 14.1619 30.6667 11.4444 30.6667C5.86015 30.6667 1.33325 26.0937 1.33325 20.4525C1.33325 20.3234 1.33562 20.1948 1.34032 20.0669C1.33562 19.9341 1.33325 19.8007 1.33325 19.6667C1.33325 13.5916 6.20837 8.66675 12.2221 8.66675H27.7777C33.7915 8.66675 38.6666 13.5916 38.6666 19.6667C38.6666 19.8007 38.6642 19.9341 38.6595 20.0669Z" fill="#2B221D"/>
<path d="M13.111 15.4444C13.111 14.6467 12.4643 14 11.6666 14C10.8688 14 10.2221 14.6467 10.2221 15.4444V16.8889H8.7777C7.97995 16.8889 7.33325 17.5356 7.33325 18.3333C7.33325 19.1311 7.97995 19.7778 8.7777 19.7778H10.2221V21.2222C10.2221 22.02 10.8688 22.6667 11.6666 22.6667C12.4643 22.6667 13.111 22.02 13.111 21.2222V19.7778H14.5555C15.3532 19.7778 15.9999 19.1311 15.9999 18.3333C15.9999 17.5356 15.3532 16.8889 14.5555 16.8889H13.111V15.4444Z" fill="#2B221D"/>
<circle cx="23.6666" cy="18.3333" r="2.33333" fill="#2B221D"/>
<circle cx="30.3333" cy="18.3333" r="2.33333" fill="#2B221D"/>
</svg>
