<svg width="16" height="16" viewBox="0 0 16 16" fill="none" xmlns="http://www.w3.org/2000/svg">
<path fill-rule="evenodd" clip-rule="evenodd" d="M2.33333 0.666626C1.22876 0.666626 0.333328 1.56206 0.333328 2.66663V13.3333C0.333328 14.4379 1.22876 15.3333 2.33333 15.3333H13C14.1046 15.3333 15 14.4379 15 13.3333V2.66663C15 1.56206 14.1046 0.666626 13 0.666626H2.33333ZM2.66666 2.3333C2.29847 2.3333 1.99999 2.63178 1.99999 2.99997V13C1.99999 13.3682 2.29847 13.6666 2.66666 13.6666H12.6667C13.0349 13.6666 13.3333 13.3682 13.3333 13V2.99997C13.3333 2.63178 13.0349 2.3333 12.6667 2.3333H2.66666Z" fill="#FF9100"/>
<path fill-rule="evenodd" clip-rule="evenodd" d="M8.66667 5C8.29848 5 8 5.29848 8 5.66667V10.3333C8 10.7015 8.29848 11 8.66667 11H15.3333C15.7015 11 16 10.7015 16 10.3333V5.66667C16 5.29848 15.7015 5 15.3333 5H8.66667ZM11 9.33333C11.7364 9.33333 12.3333 8.73638 12.3333 8C12.3333 7.26362 11.7364 6.66667 11 6.66667C10.2636 6.66667 9.66667 7.26362 9.66667 8C9.66667 8.73638 10.2636 9.33333 11 9.33333Z" fill="#FF9100"/>
</svg>
