<svg width="40" height="40" viewBox="0 0 40 40" fill="none" xmlns="http://www.w3.org/2000/svg">
<path fill-rule="evenodd" clip-rule="evenodd" d="M5.33325 11.1111C5.33325 9.30304 6.3766 8.00106 7.31858 7.21371C8.27921 6.41076 9.49285 5.82016 10.7342 5.38131C13.2439 4.49403 16.52 4 19.9999 4C23.4799 4 26.7559 4.49403 29.2657 5.38131C30.507 5.82016 31.7206 6.41076 32.6813 7.21371C33.6232 8.00106 34.6666 9.30304 34.6666 11.1111V28.8889C34.6666 30.697 33.6232 31.9989 32.6813 32.7863C31.7206 33.5892 30.507 34.1798 29.2657 34.6187C26.7559 35.506 23.4799 36 19.9999 36C16.52 36 13.2439 35.506 10.7342 34.6187C9.49285 34.1798 8.27921 33.5892 7.31858 32.7863C6.3766 31.9989 5.33325 30.697 5.33325 28.8889V11.1111ZM19.9999 18.2222C23.4799 18.2222 26.7559 17.7282 29.2657 16.8409C30.1266 16.5366 30.9741 16.1592 31.7333 15.6887V17.037C31.7333 18.1977 30.3848 19.2471 28.2115 20C26.0953 20.7331 23.1969 21.1852 19.9999 21.1852C16.8029 21.1852 13.9045 20.7331 11.7883 20C11.7598 19.9901 11.7314 19.9802 11.7032 19.9702C9.57988 19.2196 8.26659 18.1825 8.26659 17.037V15.6887C9.02569 16.1592 9.87327 16.5366 10.7342 16.8409C13.2439 17.7282 16.52 18.2222 19.9999 18.2222ZM8.26659 11.1111C8.26659 8.82015 13.5198 6.96296 19.9999 6.96296C26.4801 6.96296 31.7333 8.82015 31.7333 11.1111C31.7333 12.2718 30.3848 13.3212 28.2115 14.0741C26.0953 14.8072 23.1969 15.2593 19.9999 15.2593C16.8029 15.2593 13.9045 14.8072 11.7883 14.0741C11.7598 14.0642 11.7314 14.0543 11.7032 14.0443C9.57988 13.2936 8.26659 12.2566 8.26659 11.1111ZM29.2657 22.7668C30.1266 22.4625 30.9741 22.0851 31.7333 21.6146V22.963C31.7333 24.1084 30.42 25.1455 28.2966 25.8961C28.2684 25.9061 28.2401 25.9161 28.2115 25.9259C26.0953 26.6591 23.1969 27.1111 19.9999 27.1111C16.8029 27.1111 13.9045 26.6591 11.7883 25.9259C9.61503 25.173 8.26659 24.1237 8.26659 22.963V21.6146C9.02569 22.0851 9.87327 22.4625 10.7342 22.7668C13.2439 23.6541 16.52 24.1481 19.9999 24.1481C23.4799 24.1481 26.7559 23.6541 29.2657 22.7668ZM8.26659 27.5405V28.8889C8.26659 31.1798 13.5198 33.037 19.9999 33.037C26.4801 33.037 31.7333 31.1798 31.7333 28.8889V27.5405C30.9741 28.0111 30.1266 28.3884 29.2657 28.6928C26.7559 29.58 23.4799 30.0741 19.9999 30.0741C16.52 30.0741 13.2439 29.58 10.7342 28.6928C9.87327 28.3884 9.02569 28.0111 8.26659 27.5405Z" fill="#2B221D"/>
</svg>
