<svg width="40" height="40" viewBox="0 0 40 40" fill="none" xmlns="http://www.w3.org/2000/svg">
<path fill-rule="evenodd" clip-rule="evenodd" d="M8.66675 5.33325C6.45761 5.33325 4.66675 7.12411 4.66675 9.33325V30.6666C4.66675 32.8757 6.45761 34.6666 8.66675 34.6666H30.0001C32.2092 34.6666 34.0001 32.8757 34.0001 30.6666V9.33325C34.0001 7.12411 32.2092 5.33325 30.0001 5.33325H8.66675ZM9.33341 8.6666C8.59703 8.6666 8.00008 9.26356 8.00008 9.99994V29.9999C8.00008 30.7363 8.59703 31.3333 9.33341 31.3333H29.3334C30.0698 31.3333 30.6667 30.7363 30.6667 29.9999V9.99994C30.6667 9.26356 30.0698 8.6666 29.3334 8.6666H9.33341Z" fill="white"/>
<path fill-rule="evenodd" clip-rule="evenodd" d="M21.3333 14C20.597 14 20 14.597 20 15.3333V24.6667C20 25.403 20.597 26 21.3333 26H34.6667C35.403 26 36 25.403 36 24.6667V15.3333C36 14.597 35.403 14 34.6667 14H21.3333ZM26 22.6667C27.4728 22.6667 28.6667 21.4728 28.6667 20C28.6667 18.5272 27.4728 17.3333 26 17.3333C24.5272 17.3333 23.3333 18.5272 23.3333 20C23.3333 21.4728 24.5272 22.6667 26 22.6667Z" fill="white"/>
</svg>
